{"title":"A.Bugs.Life.1998.1080p.BluRay.H264.AAC-RARBG","uid":11849794,"size":1944805312,"categoryP":"video","categoryS":"hd___movies","magnet":"?xt=urn:btih:a1f7bfee6c2ab63c3b5e79522c74bb212eafac0a&amp;dn=A.Bugs.Life.1998.1080p.BluRay.H264.AAC-RARBG&amp;tr=udp%3A%2F%2Ftracker.openbittorrent.com%3A80&amp;tr=udp%3A%2F%2Fopen.demonii.com%3A1337&amp;tr=udp%3A%2F%2Ftracker.coppersurfer.tk%3A6969&amp;tr=udp%3A%2F%2Fexodus.desync.com%3A6969","seeders":3,"leechers":3,"uploader":"vickey1992","files":4,"time":1430060569,"description":"Video\nID                                       : 1\nFormat                                   : AVC\nFormat/Info                              : Advanced Video Codec\nFormat profile                           : &lt;a class=&quot;__cf_email__&quot; href=&quot;/cdn-cgi/l/email-protection&quot; data-cfemail=&quot;bef6d7d9d6fef28a908f&quot;&gt;[email&amp;#160;protected]&lt;/a&gt;&lt;script cf-hash='f9e31' type=&quot;text/javascript&quot;&gt;\n/* &lt;![CDATA[ */!function(){try{var t=&quot;currentScript&quot;in document?document.currentScript:function(){for(var t=document.getElementsByTagName(&quot;script&quot;),e=t.length;e--;)if(t[e].getAttribute(&quot;cf-hash&quot;))return t[e]}();if(t&amp;&amp;t.previousSibling){var e,r,n,i,c=t.previousSibling,a=c.getAttribute(&quot;data-cfemail&quot;);if(a){for(e=&quot;&quot;,r=parseInt(a.substr(0,2),16),n=2;a.length-n;n+=2)i=parseInt(a.substr(n,2),16)^r,e+=String.fromCharCode(i);e=document.createTextNode(e),c.parentNode.replaceChild(e,c)}}}catch(u){}}();/* ]]&gt; */&lt;/script&gt;\nFormat settings, CABAC                   : Yes\nFormat settings, ReFrames                : 4 frames\nCodec ID                                 : avc1\nCodec ID/Info                            : Advanced Video Coding\nDuration                                 : 1h 34mn\nBit rate                                 : 2 500 Kbps\nWidth                                    : 1 920 pixels\nHeight                                   : 816 pixels\nDisplay aspect ratio                     : 2.35:1\nFrame rate mode                          : Constant\nFrame rate                               : 23.976 fps\nColor space                              : YUV\nChroma subsampling                       : 4:2:0\nBit depth                                : 8 bits\nScan type                                : Progressive\nBits/(Pixel*Frame)                       : 0.067\nStream size                              : 1.66 GiB (92%)\nWriting library                          : x264 core 144 r2525M 40bb568\nEncoding settings                        : cabac=1 / ref=4 / deblock=1:-1:-1 / analyse=0x3:0x113 / me=umh / subme=9 / psy=1 / psy_rd=1.00:0.15 / mixed_ref=1 / me_range=24 / chroma_me=1 / trellis=2 / 8x8dct=1 / cqm=0 / deadzone=21,11 / fast_pskip=1 / chroma_qp_offset=-3 / threads=32 / lookahead_threads=4 / sliced_threads=0 / nr=0 / decimate=1 / interlaced=0 / bluray_compat=0 / constrained_intra=0 / bframes=3 / b_pyramid=2 / b_adapt=1 / b_bias=0 / direct=1 / weightb=1 / open_gop=0 / weightp=2 / keyint=250 / keyint_min=25 / scenecut=40 / intra_refresh=0 / rc_lookahead=50 / rc=2pass / mbtree=1 / bitrate=2500 / ratetol=1.0 / qcomp=0.60 / qpmin=0 / qpmax=69 / qpstep=4 / cplxblur=20.0 / qblur=0.5 / vbv_maxrate=31250 / vbv_bufsize=31250 / nal_hrd=none / filler=0 / ip_ratio=1.40 / aq=3:1.00\nEncoded date                             : UTC 1904-01-01 00:00:00\nTagged date                              : UTC 1904-01-01 00:00:00\n\nAudio\nID                                       : 2\nFormat                                   : AAC\nFormat/Info                              : Advanced Audio Codec\nFormat profile                           : LC\nCodec ID                                 : 40\nDuration                                 : 1h 34mn\nBit rate mode                            : Constant\nBit rate                                 : 224 Kbps\nChannel(s)                               : 2 channels\nChannel(s)_Original                      : 6 channels\nChannel positions                        : Front: L C R, Side: L R, LFE\nSampling rate                            : 48.0 KHz\nCompression mode                         : Lossy\nStream size                              : 152 MiB (8%)\nLanguage                                 : English\nEncoded date                             : UTC 1904-01-01 00:00:00\nTagged date                              : UTC 1904-01-01 00:00:00\n\nMenu #1\nID                                       : 3\nCodec ID                                 : text\nDuration                                 : 1h 34mn\nLanguage                                 : English\nEncoded date                             : UTC 1904-01-01 00:00:00\nTagged date                              : UTC 1904-01-01 00:00:00\nBit rate mode                            : CBR\n00:00:00.000                             : Chapter 00\n00:04:28.520                             : Chapter 01\n00:07:52.014                             : Chapter 02\n00:09:52.009                             : Chapter 03\n00:15:18.669                             : Chapter 04\n00:17:19.206                             : Chapter 05\n00:18:55.803                             : Chapter 06\n00:20:04.538                             : Chapter 07\n00:26:07.984                             : Chapter 08\n00:27:48.960                             : Chapter 09\n00:31:29.180                             : Chapter 10\n00:32:43.046                             : Chapter 11\n00:35:57.406                             : Chapter 12\n00:39:42.256                             : Chapter 13\n00:41:26.652                             : Chapter 14\n00:45:08.415                             : Chapter 15\n00:45:49.665                             : Chapter 16\n00:47:16.710                             : Chapter 17\n00:49:13.368                             : Chapter 18\n00:52:50.669                             : Chapter 19\n00:56:36.019                             : Chapter 20\n00:58:49.235                             : Chapter 21\n01:02:23.991                             : Chapter 22\n01:04:27.031                             : Chapter 23\n01:05:30.219                             : Chapter 24\n01:06:47.046                             : Chapter 25\n01:10:01.657                             : Chapter 26\n01:10:49.121                             : Chapter 27\n01:15:15.304                             : Chapter 28\n01:17:29.354                             : Chapter 29\n01:20:00.338                             : Chapter 30\n01:21:12.953                             : Chapter 31\n01:23:05.482                             : Chapter 32\n01:24:15.969                             : Chapter 33\n01:28:30.390                             : Chapter 34\n01:29:55.975                             : Chapter 35\n\nMenu #2\n00:00:00.043                             : Chapter 00\n00:04:28.520                             : Chapter 01\n00:07:52.014                             : Chapter 02\n00:09:52.009                             : Chapter 03\n00:15:18.669                             : Chapter 04\n00:17:19.206                             : Chapter 05\n00:18:55.803                             : Chapter 06\n00:20:04.538                             : Chapter 07\n00:26:07.984                             : Chapter 08\n00:27:48.960                             : Chapter 09\n00:31:29.180                             : Chapter 10\n00:32:43.046                             : Chapter 11\n00:35:57.406                             : Chapter 12\n00:39:42.256                             : Chapter 13\n00:41:26.652                             : Chapter 14\n00:45:08.415                             : Chapter 15\n00:45:49.665                             : Chapter 16\n00:47:16.710                             : Chapter 17\n00:49:13.368                             : Chapter 18\n00:52:50.669                             : Chapter 19\n00:56:36.019                             : Chapter 20\n00:58:49.235                             : Chapter 21\n01:02:23.991                             : Chapter 22\n01:04:27.031                             : Chapter 23\n01:05:30.219                             : Chapter 24\n01:06:47.046                             : Chapter 25\n01:10:01.657                             : Chapter 26\n01:10:49.121                             : Chapter 27\n01:15:15.304                             : Chapter 28\n01:17:29.354                             : Chapter 29\n01:20:00.338                             : Chapter 30\n01:21:12.953                             : Chapter 31\n01:23:05.482                             : Chapter 32\n01:24:15.969                             : Chapter 33\n01:28:30.390                             : Chapter 34\n01:29:55.975                             : Chapter 35","torrent":{"xt":"urn:btih:a1f7bfee6c2ab63c3b5e79522c74bb212eafac0a","amp;dn":"A.Bugs.Life.1998.1080p.BluRay.H264.AAC-RARBG","amp;tr":["udp%3A%2F%2Ftracker.openbittorrent.com%3A80","udp%3A%2F%2Fopen.demonii.com%3A1337","udp%3A%2F%2Ftracker.coppersurfer.tk%3A6969","udp%3A%2F%2Fexodus.desync.com%3A6969"],"infoHash":"a1f7bfee6c2ab63c3b5e79522c74bb212eafac0a","infoHashBuffer":{"type":"Buffer","data":[161,247,191,238,108,42,182,60,59,94,121,82,44,116,187,33,46,175,172,10]},"announce":[],"urlList":[]}}